<svg width="126" height="25" viewBox="0 0 126 25" fill="none" xmlns="http://www.w3.org/2000/svg">
<path fill-rule="evenodd" clip-rule="evenodd" d="M43.7886 8.98479C44.3349 9.1895 44.8281 9.51407 45.2319 9.93456V9.94626C45.6861 10.4256 46.0405 10.9901 46.2746 11.6072C46.5201 12.2618 46.654 12.9529 46.6705 13.6518C46.6745 13.7474 46.6389 13.8404 46.5721 13.9091C46.5064 13.9785 46.4147 14.0175 46.3191 14.0167H39.4376C39.3919 14.4722 39.4537 14.9321 39.618 15.3595C39.7752 15.7601 40.0147 16.1235 40.3209 16.4262C40.6266 16.7301 40.9908 16.9689 41.3917 17.128C41.8134 17.2997 42.2648 17.3871 42.7202 17.3854C43.2343 17.3895 43.7439 17.2884 44.2174 17.0883C44.6162 16.9131 44.9955 16.6967 45.3491 16.4426C45.429 16.387 45.5284 16.3668 45.6237 16.3868C45.719 16.4067 45.8019 16.465 45.8528 16.5479L46.3566 17.3783C46.4505 17.5361 46.4077 17.7395 46.2582 17.8462C45.7673 18.1895 45.2361 18.4716 44.6766 18.686C44.0024 18.9378 43.2877 19.0639 42.5679 19.058C41.8544 19.0673 41.1463 18.9345 40.4849 18.6673C39.8797 18.4156 39.3344 18.0394 38.8846 17.5631C38.4319 17.0751 38.0814 16.5016 37.8537 15.8765C37.6027 15.1981 37.4758 14.4802 37.4788 13.757C37.4721 13.0631 37.5879 12.3734 37.8209 11.7195C38.0342 11.1265 38.3586 10.5795 38.7768 10.1077C39.1888 9.65297 39.696 9.29436 40.2623 9.05731C40.875 8.80459 41.5325 8.67807 42.1953 8.68536C42.74 8.68979 43.2796 8.79119 43.7886 8.98479ZM40.5482 10.9452C40.0867 11.3631 39.7707 11.917 39.6461 12.5265H44.5313C44.4254 11.9309 44.144 11.3803 43.723 10.9452C43.3066 10.5503 42.7481 10.3402 42.1742 10.3627C41.5787 10.349 40.9992 10.5565 40.5482 10.9452Z" fill="#F15B2B"/>
<path d="M53.2638 8.68531C51.7062 8.65928 50.1697 9.04765 48.8121 9.81053C48.7045 9.87308 48.6385 9.98805 48.6387 10.1123V18.4754C48.6387 18.6692 48.796 18.8263 48.9901 18.8263H50.1991C50.3932 18.8263 50.5506 18.6692 50.5506 18.4754V10.9053C50.8811 10.716 51.2392 10.5794 51.612 10.5006C52.1009 10.3961 52.5999 10.3467 53.0998 10.3533C53.7297 10.3352 54.3334 10.6048 54.7399 11.0855C55.1547 11.5697 55.3655 12.2739 55.3655 13.1745V18.4661C55.3655 18.6599 55.5229 18.817 55.717 18.817H56.9049C57.099 18.817 57.2564 18.6599 57.2564 18.4661V12.8353C57.2564 11.4457 56.8885 10.3954 56.1622 9.71228C55.4358 9.02919 54.4775 8.68531 53.2638 8.68531Z" fill="#F15B2B"/>
<path fill-rule="evenodd" clip-rule="evenodd" d="M66.5298 17.4882C66.1105 17.3297 65.6714 17.2297 65.2247 17.1911C64.7561 17.149 64.318 17.1139 63.9056 17.0858C63.5521 17.0645 63.2006 17.0184 62.8536 16.9478C62.5607 16.8847 62.406 16.742 62.385 16.508C62.3639 16.2741 62.6193 16.1524 62.8536 16.0986C63.1956 16.0191 63.5565 15.9232 63.9384 15.8156C64.3376 15.7102 64.7247 15.5636 65.0935 15.3781C65.4731 15.1889 65.8209 14.9419 66.1244 14.6459C66.4333 14.3422 66.6813 13.9825 66.8555 13.5862C67.2503 12.6055 67.2241 11.5059 66.7828 10.5451C66.5639 10.1054 66.2522 9.71834 65.8691 9.41048C65.5009 9.11671 65.0837 8.89021 64.6366 8.74143C64.2164 8.59774 63.7757 8.52269 63.3315 8.51919C62.7132 8.5026 62.0981 8.61411 61.5251 8.8467C61.0612 9.0445 60.6444 9.33785 60.302 9.70757C59.9934 10.0454 59.7588 10.4438 59.6131 10.8772C59.4733 11.2983 59.4013 11.739 59.3999 12.1826C59.402 12.468 59.4374 12.7522 59.5054 13.0294C59.5779 13.3304 59.6998 13.6174 59.8662 13.8786C60.0417 14.1649 60.2579 14.4242 60.5082 14.6483C60.7971 14.893 61.1282 15.0832 61.4852 15.2097C61.0852 15.2945 60.701 15.4413 60.3465 15.6448C60.0779 15.8307 59.9288 16.1454 59.9552 16.4706C59.9449 16.7705 60.0644 17.0603 60.2832 17.266C60.5328 17.4831 60.8272 17.6429 61.1455 17.7338L61.2087 17.7993C61.1815 17.802 61.1547 17.8083 61.1291 17.8181L61.0588 17.8508L60.9112 17.9257C60.5938 18.0005 60.2918 18.1295 60.0185 18.307C59.2773 18.7974 58.8306 19.6252 58.8282 20.513C58.8248 20.8869 58.9168 21.2556 59.0953 21.5844C59.2774 21.9213 59.5348 22.2119 59.8474 22.4336C60.1981 22.6771 60.5858 22.8627 60.9955 22.9833C61.4715 23.124 61.9659 23.1926 62.4623 23.1868C63.1558 23.1877 63.846 23.0908 64.5124 22.8991C65.1281 22.7269 65.7153 22.466 66.2557 22.1248C66.7275 21.8271 67.1379 21.442 67.4647 20.9902C68.052 20.1679 68.0771 19.071 67.5279 18.2228C67.2717 17.8862 66.9258 17.6284 66.5298 17.4789V17.4882ZM62.5255 21.6265C61.8953 21.6265 61.4407 21.5212 61.1338 21.306C60.8406 21.1244 60.6631 20.8036 60.6652 20.4592C60.6607 20.1609 60.7705 19.8722 60.9721 19.6521C61.1921 19.4155 61.4574 19.2253 61.7523 19.093C62.05 18.95 62.3651 18.8462 62.6895 18.7842C62.9796 18.7251 63.2745 18.693 63.5705 18.6883C63.922 18.6883 64.25 18.7 64.5476 18.721C64.8144 18.7368 65.0786 18.7831 65.3348 18.8591C65.5357 18.9148 65.7189 19.0211 65.8667 19.1679C66.0025 19.3222 66.0708 19.5244 66.0565 19.7293C66.0408 19.9877 65.9268 20.2304 65.7378 20.4077C65.5005 20.6526 65.2242 20.8565 64.9201 21.0113C64.5626 21.1975 64.1854 21.3435 63.7955 21.4464C63.383 21.5585 62.9576 21.6159 62.5302 21.6171L62.5255 21.6265ZM61.265 12.1124C61.2514 12.6681 61.4528 13.2076 61.8273 13.6189H61.8203C62.1833 14.0261 62.7085 14.2515 63.2542 14.2342C63.5209 14.2346 63.7848 14.1804 64.0298 14.0751C64.2715 13.974 64.4888 13.8224 64.6671 13.6306C64.8478 13.4346 64.9921 13.2081 65.0935 12.9616C65.1995 12.7065 65.2536 12.433 65.2528 12.1569C65.265 11.6095 65.0536 11.0808 64.6671 10.6924C64.2933 10.303 63.7733 10.0875 63.2331 10.0982C62.7036 10.0878 62.1938 10.299 61.8273 10.6807C61.4565 11.0642 61.2541 11.5795 61.265 12.1124Z" fill="#F15B2B"/>
<path fill-rule="evenodd" clip-rule="evenodd" d="M74.3043 8.76003C74.6792 8.83775 75.0361 8.98537 75.3563 9.19515H75.3469C76.1092 9.68163 76.5483 10.5416 76.495 11.4433V17.963C76.495 18.0776 75.7218 18.4706 75.115 18.6203C74.0771 18.8656 73.0159 18.9989 71.9495 19.018C71.5479 19.0155 71.1521 18.9219 70.7921 18.7443C70.4386 18.5617 70.1211 18.3168 69.8548 18.0215C69.588 17.7273 69.3726 17.3904 69.2175 17.0249C69.0657 16.6764 68.986 16.3008 68.9832 15.9207C68.9563 15.2842 69.1274 14.655 69.4729 14.1195C69.7961 13.6538 70.2355 13.2804 70.7475 13.0363C71.3143 12.7712 71.9204 12.5997 72.5423 12.5287C73.2292 12.4429 73.9214 12.4069 74.6135 12.4211V11.6585C74.6386 11.2642 74.4866 10.8793 74.1988 10.6081C73.8589 10.34 73.4314 10.2074 72.9992 10.2362C72.5031 10.2431 72.01 10.3147 71.5325 10.449C71.1148 10.5644 70.715 10.7368 70.3445 10.9613C70.2612 11.0129 70.1597 11.0265 70.0657 10.9988C69.9717 10.9706 69.8931 10.9056 69.8478 10.8187L69.4097 9.93906C69.3217 9.76969 69.3864 9.56117 69.5549 9.47119C70.1031 9.169 70.6952 8.95431 71.3099 8.83489C71.9509 8.71229 72.6019 8.64808 73.2546 8.64307C73.6075 8.64648 73.9592 8.68567 74.3043 8.76003ZM74.5831 17.0436L74.6042 13.9885L74.6018 13.9838H74.2504C73.8989 13.9838 73.5498 14.0001 73.2194 14.0329C72.8173 14.0646 72.4224 14.1569 72.0479 14.3066C71.7293 14.4355 71.4493 14.6441 71.2349 14.9125C71.0221 15.2037 70.9147 15.5583 70.9303 15.9184C70.9195 16.3118 71.0585 16.6947 71.3192 16.9898C71.5647 17.2743 71.925 17.434 72.301 17.4249C72.4861 17.4249 72.6923 17.4156 72.9148 17.3945C73.1374 17.3735 73.367 17.3407 73.5709 17.308C73.7747 17.2752 73.9739 17.2355 74.1613 17.191C74.3084 17.1629 74.4505 17.1132 74.5831 17.0436Z" fill="#F15B2B"/>
<path fill-rule="evenodd" clip-rule="evenodd" d="M85.7997 17.4882C85.3796 17.3296 84.9397 17.2297 84.4923 17.1911C84.0237 17.149 83.5847 17.1139 83.1755 17.0858C82.822 17.0645 82.4705 17.0184 82.1235 16.9478C81.8306 16.8846 81.6736 16.7419 81.6549 16.508C81.6361 16.2741 81.8892 16.1524 82.1118 16.0986C82.4515 16.0214 82.8147 15.9255 83.1989 15.8156C83.5981 15.7102 83.9853 15.5635 84.354 15.3781C84.7333 15.1895 85.0804 14.9424 85.3826 14.6459C85.6929 14.3429 85.9419 13.9831 86.116 13.5862C86.5079 12.6049 86.4816 11.5065 86.0434 10.545C85.8244 10.1054 85.5127 9.7183 85.1296 9.41044C84.7612 9.11712 84.344 8.89067 83.8972 8.74139C83.4761 8.59769 83.0347 8.52265 82.5897 8.51916C81.9722 8.50276 81.3579 8.61427 80.7856 8.84666C80.3218 9.04446 79.905 9.33782 79.5625 9.70754C79.2539 10.0453 79.0193 10.4437 78.8737 10.8772C78.7338 11.2983 78.6619 11.7389 78.6605 12.1826C78.6626 12.468 78.698 12.7522 78.7659 13.0294C78.8382 13.3305 78.9601 13.6175 79.1267 13.8786C79.3091 14.1598 79.5308 14.4134 79.7851 14.6318C80.0752 14.8761 80.407 15.0663 80.7645 15.1933C80.3644 15.2812 79.9809 15.4321 79.6281 15.6401C79.3579 15.8248 79.2076 16.14 79.2345 16.4659C79.2242 16.7658 79.3437 17.0556 79.5625 17.2613C79.8115 17.4793 80.1061 17.6391 80.4248 17.7291L80.488 17.7946C80.4581 17.7977 80.4288 17.8056 80.4013 17.818L80.3381 17.8461L80.1905 17.921C79.8731 17.9958 79.5711 18.1248 79.2978 18.3023C79.0494 18.4653 78.8308 18.6694 78.6511 18.9058C78.2993 19.3663 78.1083 19.9291 78.1075 20.5083C78.1044 20.8819 78.1955 21.2503 78.3723 21.5797C78.5554 21.9166 78.8135 22.2072 79.1267 22.4289C79.4772 22.6728 79.8649 22.8585 80.2748 22.9786C80.7507 23.1194 81.2452 23.188 81.7416 23.1821C82.4351 23.1828 83.1253 23.086 83.7917 22.8944C84.4068 22.7226 84.9933 22.4618 85.5326 22.1201C86.0056 21.8231 86.4169 21.4379 86.7439 20.9855C87.3313 20.1632 87.3563 19.0663 86.8072 18.2181C86.551 17.8815 86.2051 17.6237 85.8091 17.4741L85.7997 17.4882ZM81.8048 21.6124L81.7988 21.6124C82.2258 21.6109 82.6509 21.5535 83.063 21.4417C83.4528 21.3384 83.83 21.1924 84.1877 21.0065C84.4918 20.8518 84.7681 20.6479 85.0054 20.403C85.1944 20.2257 85.3084 19.983 85.3241 19.7246C85.3367 19.5192 85.2686 19.3169 85.1343 19.1608C84.9856 19.0156 84.8027 18.9102 84.6024 18.8543C84.3461 18.7784 84.082 18.7321 83.8151 18.7163C83.5176 18.6953 83.1895 18.6836 82.8381 18.6836C82.5421 18.6882 82.2472 18.7203 81.9571 18.7795C81.6326 18.8415 81.3176 18.9453 81.0199 19.0883C80.7341 19.2205 80.477 19.4073 80.2631 19.638C80.0614 19.8581 79.9516 20.1468 79.9561 20.4451C79.9515 20.7873 80.1243 21.1075 80.413 21.2919C80.719 21.5065 81.1716 21.6118 81.7988 21.6124L81.7978 21.6124H81.8048ZM80.5325 12.1077C80.519 12.6634 80.7204 13.2029 81.0949 13.6142H81.0878C81.4507 14.0217 81.976 14.2471 82.5218 14.2295C82.7884 14.2296 83.0523 14.1755 83.2973 14.0704C83.5391 13.9693 83.7564 13.8177 83.9346 13.6259C84.1139 13.4288 84.2581 13.2025 84.3611 12.9569C84.4663 12.7017 84.5197 12.4281 84.5181 12.1521C84.5309 11.6052 84.3203 11.0765 83.9346 10.6877C83.5603 10.299 83.0407 10.0837 82.5007 10.0935C81.9711 10.0828 81.4612 10.2941 81.0949 10.676C80.724 11.0595 80.5217 11.5748 80.5325 12.1077Z" fill="#F15B2B"/>
<path fill-rule="evenodd" clip-rule="evenodd" d="M94.4995 8.98479C95.0462 9.19004 95.5401 9.51452 95.9452 9.93456L95.9569 9.92754C96.4096 10.4076 96.7631 10.972 96.9972 11.5885C97.244 12.246 97.3779 12.9404 97.3932 13.6424C97.397 13.7379 97.3617 13.8308 97.2954 13.8997C97.229 13.9685 97.1374 14.0074 97.0417 14.0073H90.1555C90.1118 14.463 90.1743 14.9226 90.3383 15.3501C90.4869 15.7513 90.7166 16.1176 91.0131 16.4262C91.3197 16.7301 91.6847 16.9689 92.0862 17.128C92.5078 17.3001 92.9592 17.3875 93.4147 17.3854C93.9288 17.3893 94.4384 17.2882 94.9119 17.0883C95.31 16.9131 95.6885 16.6967 96.0413 16.4426C96.1215 16.3862 96.2218 16.3658 96.3177 16.3865C96.4156 16.4037 96.5011 16.4626 96.552 16.5479L97.0558 17.3783C97.1509 17.5359 97.108 17.7401 96.9574 17.8462C96.4665 18.1895 95.9354 18.4716 95.3758 18.686C94.7018 18.9383 93.9869 19.0644 93.2671 19.058C92.5537 19.0673 91.8455 18.9345 91.1841 18.6673C90.5784 18.4165 90.033 18.0401 89.5838 17.5631C89.1306 17.0755 88.78 16.5019 88.5529 15.8765C88.3059 15.1973 88.1829 14.4795 88.1897 13.757C88.1831 13.0631 88.2989 12.3734 88.5318 11.7195C88.745 11.126 89.0704 10.5788 89.4901 10.1077C89.9021 9.65404 90.4083 9.29559 90.9733 9.05731C91.5859 8.80459 92.2434 8.67807 92.9063 8.68536C93.451 8.68979 93.9905 8.79119 94.4995 8.98479ZM91.2708 10.9381C90.8097 11.3564 90.4938 11.9102 90.3688 12.5195H95.254C95.1475 11.9245 94.8671 11.3743 94.448 10.9381C94.0314 10.5422 93.4716 10.332 92.8969 10.3556C92.3013 10.3419 91.7218 10.5495 91.2708 10.9381Z" fill="#F15B2B"/>
<path fill-rule="evenodd" clip-rule="evenodd" d="M107.836 3.74939C107.942 3.7169 108.058 3.73783 108.145 3.80553C108.234 3.87155 108.286 3.97571 108.286 4.08625V17.2474C108.286 17.3514 108.24 17.4501 108.16 17.5164C107.368 18.1659 106.441 18.631 105.446 18.8779C105.266 18.9247 105.057 18.9644 104.797 19.0065C104.56 19.0424 104.32 19.0596 104.08 19.058C103.384 19.063 102.695 18.9261 102.054 18.6556C100.818 18.1366 99.8407 17.1485 99.3356 15.9093C99.0686 15.26 98.934 14.5642 98.9397 13.8623C98.9333 13.1512 99.063 12.4453 99.3216 11.7827C99.5637 11.1717 99.9253 10.615 100.385 10.1451C100.845 9.68201 101.394 9.31743 102 9.07372C102.647 8.81385 103.34 8.6835 104.038 8.69007C104.459 8.68589 104.879 8.72509 105.292 8.80703C105.657 8.88465 106.009 9.01716 106.334 9.20004V4.4582C106.333 4.30264 106.436 4.16519 106.585 4.12134L107.836 3.74939ZM106.376 16.707V11.1394L106.365 11.1417C106.02 10.8954 105.636 10.7095 105.228 10.5919C104.864 10.5051 104.49 10.4627 104.115 10.4656C103.671 10.4615 103.23 10.5483 102.82 10.7206C102.435 10.8856 102.087 11.124 101.793 11.4224C101.498 11.7247 101.268 12.0847 101.119 12.4798C100.958 12.9123 100.879 13.3707 100.884 13.8319C100.88 14.3111 100.964 14.7869 101.133 15.2355C101.291 15.6524 101.53 16.034 101.836 16.3584C102.464 17.0219 103.341 17.3933 104.256 17.383C104.636 17.3916 105.014 17.3273 105.369 17.1936C105.714 17.0513 106.051 16.8888 106.376 16.707Z" fill="#F15B2B"/>
<path d="M115.573 16.7935C115.534 16.7713 115.487 16.7713 115.449 16.7935C115.277 16.9071 115.097 17.0073 114.91 17.0929C114.619 17.242 114.279 17.2632 113.973 17.1514C113.831 17.1051 113.701 17.0293 113.591 16.9292C113.467 16.8179 113.369 16.6825 113.3 16.5315C113.218 16.3517 113.178 16.1557 113.183 15.9583V3.74465C113.183 3.70709 113.166 3.67156 113.136 3.64873C113.116 3.63512 113.092 3.62779 113.068 3.62768C113.057 3.62541 113.045 3.62541 113.033 3.62768L111.079 4.22187C111.029 4.23643 110.995 4.28217 110.995 4.33416V16.2157C110.986 16.6564 111.097 17.0912 111.316 17.4742C111.517 17.8237 111.786 18.1305 112.105 18.3772C112.414 18.6154 112.762 18.7975 113.134 18.9152C113.469 19.0265 113.819 19.0857 114.172 19.0907C114.391 19.0889 114.611 19.0709 114.828 19.0369C115.033 19.0123 115.23 18.9445 115.407 18.8381C115.435 18.8178 115.454 18.7863 115.458 18.7515L115.627 16.9058C115.631 16.8612 115.611 16.8178 115.573 16.7935Z" fill="#0D72BA"/>
<path d="M125.298 9.11335L123.729 8.2244C123.701 8.20917 123.668 8.205 123.637 8.2127C123.606 8.22211 123.579 8.24412 123.565 8.27353L120.704 14.0634C120.664 14.1415 120.583 14.1907 120.495 14.1907C120.407 14.1907 120.327 14.1415 120.287 14.0634L117.241 8.26651C117.225 8.23864 117.199 8.21778 117.168 8.20802H117.135C117.115 8.20766 117.096 8.21337 117.079 8.2244L115.486 9.11335C115.43 9.1451 115.409 9.21545 115.439 9.27242L119.373 16.6507C119.406 16.7163 119.406 16.7933 119.373 16.8589C119.333 16.9455 119.27 17.0765 119.171 17.2776C119.012 17.6051 118.848 17.921 118.686 18.2134C118.436 18.6805 118.134 19.1183 117.787 19.5187C117.511 19.8315 117.196 20.1067 116.849 20.3375C116.545 20.5356 116.216 20.6929 115.87 20.8054C115.529 20.9155 115.181 21.0061 114.83 21.0767C114.794 21.0839 114.764 21.1073 114.748 21.1399C114.733 21.1717 114.733 21.2087 114.748 21.2405L115.469 22.7493C115.489 22.7891 115.53 22.8144 115.575 22.8148C115.891 22.7668 116.204 22.698 116.512 22.609C116.976 22.472 117.418 22.2712 117.826 22.0125C118.367 21.6711 118.858 21.2579 119.286 20.7843C119.848 20.1526 120.316 19.4435 120.676 18.6789L125.348 9.26774C125.374 9.21135 125.353 9.1441 125.298 9.11335Z" fill="#0D72BA"/>
<path d="M24.3485 11.9641C23.9668 11.5434 23.4301 11.2996 22.8646 11.29C22.2144 11.29 21.4882 11.6707 21.3991 12.7466C21.1107 16.3234 19.1024 19.0912 16.0245 20.1486C15.3387 20.3823 14.6196 20.5011 13.8957 20.5002C11.3867 20.5002 8.84625 19.0991 7.26797 16.8415C6.94833 16.3515 6.40767 16.0541 5.82602 16.0485C5.14182 16.0599 4.51799 16.4458 4.19792 17.0556C3.89867 17.6556 3.96803 18.3755 4.3762 18.9061C6.73576 22.2635 10.2672 24.1933 14.0766 24.1933C14.8891 24.1878 15.699 24.0992 16.4938 23.9289C20.935 23.0037 24.4586 18.6418 24.8703 13.5424C24.9264 12.9626 24.7358 12.386 24.3459 11.9562" fill="#2075BC"/>
<path d="M31.3515 9.38881L26.4291 4.10366L26.347 4.01318L24.678 2.22485C24.1885 1.69102 23.4388 1.48441 22.7467 1.69261C22.2699 1.82367 21.8388 2.08535 21.5015 2.44839L15.0533 9.32228C14.3838 10.0064 14.2526 11.0558 14.7327 11.885C15.2682 12.8823 16.3967 13.4024 17.4985 13.1597C17.9053 13.0531 18.2731 12.8314 18.5582 12.521L23.3269 7.44081L28.5141 13.0107C28.9815 13.5732 29.7239 13.8242 30.4348 13.66C31.2492 13.3896 31.8562 12.7006 32.0244 11.8557C32.2402 10.9761 31.9956 10.0465 31.3753 9.38881" fill="#F15B2B"/>
<path d="M7.36879 14.6957C7.63555 14.805 7.92829 14.8426 8.21564 14.8045C8.98968 14.6631 9.5678 14.0398 9.62443 13.2857C9.68443 12.6322 9.30034 12.0156 8.67205 11.7568L3.97345 9.82033C3.66707 9.69371 3.33042 9.64994 2.99997 9.69376C2.47837 9.76525 2.04345 10.113 1.8761 10.5924L1.49621 11.6201L1.28251 12.2023L0.108525 15.3867C-0.101674 15.9549 -0.00272479 16.5863 0.372342 17.0701C0.718635 17.539 1.30143 17.7925 1.89721 17.7333C2.41992 17.6459 2.84603 17.2821 2.99733 16.7942L4.24255 13.4148L7.36879 14.6957Z" fill="#F15B2B"/>
</svg>
